PathFileType	4	(X/Y/Z)	C:/Users/Carlo/Dropbox/Carlos/SARAH/CongressoMarcha2025/WorkshopOpenSim/C3D/Caso01/Cal 01.c3d.trc
DataRate	CameraRate	NumFrames	NumMarkers	Units	OrigDataRate	OrigDataStartFrame	OrigNumFrames
100.000000	100.000000	4	70	mm	100.000000	155	178
Frame#	Time	LASI			RASI			LPSI			RPSI			LTHI			LKNE			LTIB			LANK			LHEE			LTOE			RTHI			RKNE			RTIB			RANK			RHEE			RTOE			PELO			PELA			PELL			PELP			LFEO			LFEA			LFEL			LFEP			LTIO			LTIA			LTIL			LTIP			LFOO			LFOA			LFOL			LFOP			LTOO			LTOA			LTOL			LTOP			RFEO			RFEA			RFEL			RFEP			RTIO			RTIA			RTIL			RTIP			RFOO			RFOA			RFOL			RFOP			RTOO			RTOA			RTOL			RTOP			LHipAngles			LKneeAngles			LAbsAnkleAngle			LAnkleAngles			RHipAngles			RKneeAngles			RAnkleAngles			RAbsAnkleAngle			LPelvisAngles			RPelvisAngles			LFootProgressAngles			RFootProgressAngles			LHJC			RHJC			LKJC			RKJC			LAJC			RAJC			
		X1	Y1	Z1	X2	Y2	Z2	X3	Y3	Z3	X4	Y4	Z4	X5	Y5	Z5	X6	Y6	Z6	X7	Y7	Z7	X8	Y8	Z8	X9	Y9	Z9	X10	Y10	Z10	X11	Y11	Z11	X12	Y12	Z12	X13	Y13	Z13	X14	Y14	Z14	X15	Y15	Z15	X16	Y16	Z16	X17	Y17	Z17	X18	Y18	Z18	X19	Y19	Z19	X20	Y20	Z20	X21	Y21	Z21	X22	Y22	Z22	X23	Y23	Z23	X24	Y24	Z24	X25	Y25	Z25	X26	Y26	Z26	X27	Y27	Z27	X28	Y28	Z28	X29	Y29	Z29	X30	Y30	Z30	X31	Y31	Z31	X32	Y32	Z32	X33	Y33	Z33	X34	Y34	Z34	X35	Y35	Z35	X36	Y36	Z36	X37	Y37	Z37	X38	Y38	Z38	X39	Y39	Z39	X40	Y40	Z40	X41	Y41	Z41	X42	Y42	Z42	X43	Y43	Z43	X44	Y44	Z44	X45	Y45	Z45	X46	Y46	Z46	X47	Y47	Z47	X48	Y48	Z48	X49	Y49	Z49	X50	Y50	Z50	X51	Y51	Z51	X52	Y52	Z52	X53	Y53	Z53	X54	Y54	Z54	X55	Y55	Z55	X56	Y56	Z56	X57	Y57	Z57	X58	Y58	Z58	X59	Y59	Z59	X60	Y60	Z60	X61	Y61	Z61	X62	Y62	Z62	X63	Y63	Z63	X64	Y64	Z64	X65	Y65	Z65	X66	Y66	Z66	X67	Y67	Z67	X68	Y68	Z68	X69	Y69	Z69	X70	Y70	Z70	

156	1.55	59.4391784667969	1047.020263671875	-311.6793518066407	75.44272613525393	1057.076416015625	-524.951843261719	253.5841674804689	1063.392822265625	-342.8784484863282	266.7982788085939	1064.46337890625	-454.2609558105471	121.9857711791993	749.686462402344	-217.023895263672	126.5042724609376	539.342712402344	-252.5145721435548	157.8234100341797	302.7404174804689	-219.3036346435548	175.9756469726563	100.1082992553712	-223.3249053955079	238.5537414550782	55.93883132934573	-265.4773254394532	13.00757884979249	63.31155395507815	-247.8034210205079	129.362045288086	817.1907348632817	-612.5931396484377	119.1489562988282	537.8223266601565	-575.8318481445315	150.6323242187501	383.7967224121095	-604.9360351562502	180.2232818603516	96.53916931152349	-598.9685668945315	246.2809906005861	58.88168716430667	-553.646667480469	21.854154586792	62.86069107055667	-576.9121093750002	120.7258453369141	958.223022460938	-418.7412109375002	-7.560317993164066	950.1840209960942	-428.7465820312502	111.0892410278321	952.1676635742192	-290.3179321289064	112.2482833862305	1086.756225585938	-413.3168029785159	126.0669555664063	533.2708740234377	-310.1942138671876	-298.1846923828126	523.4400024414065	-305.9427490234376	129.2667846679688	577.6984863281252	111.8486022949219	115.8452835083008	955.2113647460942	-354.5335693359376	171.1826477050782	95.31244659423831	-268.316864013672	-246.1202392578126	56.96619415283206	-219.7740173339845	215.622039794922	139.7782440185547	148.8359375000001	128.1479797363282	513.0694580078127	-308.2625732421876	16.77348709106446	87.71168518066409	-240.4520874023439	22.03563880920411	305.7485961914064	-264.2539978027345	34.57297515869142	111.0174026489258	-23.02542114257813	235.3823089599611	80.56571197509768	-257.5823974609376	-56.09612274169925	90.09366607666018	-234.7419891357423	-54.34208297729495	162.7726440429688	-242.6759490966798	-50.16297912597659	97.86223602294928	-162.2664337158204	16.77348327636719	87.71169281005862	-240.4520721435548	115.5725784301758	533.1137695312502	-519.139343261719	-313.2282714843751	545.364196777344	-545.1721801757815	88.60774993896487	497.6123046875002	-91.69287109375003	125.6063995361329	961.2348022460942	-482.9488830566409	170.7118225097657	91.80562591552737	-553.6985473632815	-243.0208740234376	47.28369903564455	-645.2810668945315	83.55825805664065	48.43214416503909	-138.8885803222657	118.0447540283204	513.3276977539065	-520.6888427734377	17.674955368042	81.87124633789065	-585.285827636719	19.14130210876466	299.3329162597657	-562.239440917969	-5.151151657104494	59.10245513916018	-368.9910888671876	235.1598663330079	78.01536560058597	-562.7399902343752	-54.82001495361331	83.15655517578128	-592.8010864257815	-54.33121871948245	155.6437683105469	-585.1189575195315	-62.42871475219729	75.56694793701175	-520.702819824219	17.6749496459961	81.87123870849612	-585.285827636719	-8.567077636718754	-4.977015495300295	1.733888506889344	0.5003501772880556	-5.593010425567629	4.478981494903566	0	0	7.267743110656742	1.177153399712847e-13	1.393686890602112	7.269900321960453	-2.025716781616212	0.7396166324615481	5.275154590606691	-0.1769149452447892	-8.292477607727054	8.443776130676273	3.532670846389393e-13	5.811735630035402	7.647081375122074	0	0	7.607527732849125	-2.411354303359986	4.454886913299562	3.7735493183136	2.411354303359986	-4.454886913299562	3.7735493183136	-6.247344970703129	-4.478186607360842	-91.87223052978518	-6.081967353820804	-5.917562484741213	-91.01572418212893	115.8452758789063	955.2113647460942	-354.5335083007814	125.6064147949219	961.2346801757817	-482.9489440917971	126.0669555664063	533.2708740234377	-310.1942138671876	115.5725784301758	533.1137695312502	-519.139343261719	171.1826477050782	95.31244659423831	-268.316864013672	170.7118377685547	91.80562591552737	-553.6985473632815	
157	1.56	59.36565780639651	1046.967529296875	-311.7356872558595	75.87821197509768	1056.855712890625	-524.9731445312502	253.5591430664064	1063.435791015625	-342.9042053222657	266.7971191406251	1064.490600585938	-454.292907714844	121.9504013061524	749.584167480469	-217.0439453125001	126.5289382934571	539.2532958984377	-252.5566711425782	157.8140563964844	302.7013549804689	-219.3040313720704	175.891098022461	100.0419692993165	-223.3464355468751	238.5720825195314	55.96122741699222	-265.4811096191407	12.97766208648682	63.2879447937012	-247.8066558837892	129.3822631835938	817.1516113281255	-612.571472167969	118.9955368041993	537.807556152344	-575.8374023437502	150.6123962402344	383.7129821777345	-604.8898925781252	180.2239685058594	96.50282287597662	-598.9189453125002	246.3015747070314	58.88522720336917	-553.664733886719	21.82996177673341	62.80341339111331	-576.8670043945315	120.9785079956055	958.126342773438	-418.5715942382815	-7.276924133300785	949.9817504882817	-428.881042480469	111.0351943969727	952.171997070313	-290.1669311523439	112.3907852172852	1086.657592773438	-413.2763671875002	126.1563262939454	533.2109985351565	-310.2398681640626	-298.0908203125001	523.338562011719	-306.4652709960939	128.8826599121094	577.4216918945315	111.8209228515626	115.9445877075196	955.1651000976567	-354.3734130859376	171.1040039062501	95.24615478515628	-268.3390197753907	-246.2127075195314	57.05501174926761	-219.866668701172	215.4878234863282	139.7106628417969	148.8112487792969	128.2296447753907	513.0089111328127	-308.307098388672	16.69601631164551	87.61244964599612	-240.4766998291017	21.91301918029786	305.6511230468751	-264.2727966308595	34.48742294311525	110.9161529541016	-23.04916381835938	235.3065643310548	80.51253509521487	-257.603973388672	-56.17417144775393	89.97908020019534	-234.7675933837892	-54.43521499633792	162.6586303710938	-242.6995849609376	-50.24367523193362	97.74693298339849	-162.2917480468751	16.69600677490235	87.61248016357425	-240.4767150878907	115.5312194824219	533.0745849609377	-519.1400146484377	-313.2296142578126	545.710632324219	-544.2833251953127	89.41608428955081	497.3957824707034	-91.7376403808594	126.0124053955079	961.0874023437505	-482.7698364257815	170.7060699462891	91.77277374267581	-553.6499023437502	-243.0042877197267	47.21381759643556	-645.2891235351565	83.49459075927737	48.43181991577151	-138.8545227050782	118.0050048828126	513.2886352539065	-520.6872558593752	17.66231918334962	81.79461669921878	-585.1900024414065	19.0787696838379	299.2593994140626	-562.169860839844	-5.092851638793947	59.04555892944339	-368.8856811523439	235.1549835205079	77.99822998046878	-562.7091064453127	-54.83523941040042	83.06007385253909	-592.6836547851565	-54.36309432983401	155.5483398437501	-585.0102539062502	-62.42031097412112	75.4770431518555	-520.582214355469	17.66232681274415	81.79461669921878	-585.1900024414065	-8.490118026733402	-5.04839086532593	1.770504951477052	0.4748580157756808	-5.652343273162844	4.457744121551515	0	0	7.233922481536869	-5.098335490762165e-13	1.38831901550293	7.236052513122562	-2.086929798126222	0.9931412935256962	5.39509439468384	-0.1331453025341034	-8.409020423889164	8.510510444641117	5.754851619115683e-14	5.838528633117678	7.63873910903931	0	0	7.598882675170902	-2.353883266448975	4.590357780456545	3.822485923767092	2.353883266448975	-4.590357780456545	3.822485923767092	-6.245800495147709	-4.477401733398439	-91.86016082763675	-6.074831008911136	-5.900467872619631	-91.00000000000003	115.9445877075196	955.1651000976567	-354.3733825683595	126.0124130249024	961.087524414063	-482.7698059082034	126.1563262939454	533.2109985351565	-310.2398681640626	115.5312118530274	533.0745849609377	-519.1400146484377	171.1040039062501	95.24615478515628	-268.3390502929689	170.7060852050782	91.77277374267581	-553.6499023437502	
158	1.57	59.27946090698245	1046.855712890625	-311.7600097656251	75.77250671386722	1056.719360351563	-524.965759277344	253.5070648193361	1063.468994140625	-342.895233154297	266.7680969238282	1064.529907226563	-454.2895507812502	121.9157257080079	749.447448730469	-217.0839385986329	126.378776550293	539.0571289062502	-252.5449981689454	157.7406616210938	302.6238403320314	-219.2965393066407	175.7535705566407	99.93093109130865	-223.3592987060548	238.5477905273439	55.94641876220706	-265.4881286621095	12.918851852417	63.2175216674805	-247.7916717529298	129.3206329345704	817.064575195313	-612.5203857421877	118.8949127197266	537.7017822265627	-575.7988281250002	150.526596069336	383.6037902832032	-604.8214111328127	180.1145477294922	96.42780303955084	-598.8972167968752	246.2770538330079	58.90119171142581	-553.6628417968752	21.76199913024903	62.72354125976565	-576.816345214844	120.957374572754	958.044799804688	-418.5664367675784	-7.291954040527347	949.7961425781255	-428.869079589844	111.0242156982422	952.1043090820317	-290.1604003906251	112.2672958374024	1086.570068359375	-413.292663574219	125.9714660644532	533.015075683594	-310.227996826172	-298.3951721191407	523.3369750976565	-306.217742919922	128.9525299072266	577.2360839843752	111.9478149414063	115.9285125732422	955.090454101563	-354.3675537109376	170.8745269775391	95.127799987793	-268.3412475585939	-246.2723846435548	57.06841659545901	-219.0307769775392	216.1018371582032	139.6514587402344	148.6284790039063	128.0431060791016	512.8128051757815	-308.2955017089845	16.47116661071778	87.45848083496097	-240.463104248047	21.62766265869141	305.4936828613282	-264.3040466308595	34.27642059326173	110.8111877441407	-23.04194641113282	235.0820465087892	80.41355133056643	-257.609100341797	-56.39912414550784	89.80679321289065	-234.7477569580079	-54.68030548095706	162.4851989746094	-242.6947174072267	-50.46402359008792	97.59100341796881	-162.2740478515626	16.47115325927735	87.45849609375003	-240.4631195068361	115.4347763061524	532.9739379882815	-519.1007080078127	-313.3372802734376	545.675231933594	-544.2083740234377	89.35060119628909	497.3331298828127	-91.68225097656253	125.9862365722657	960.999145507813	-482.7653503417971	170.5810852050782	91.69429779052737	-553.6318359375002	-243.0791625976564	47.18130111694337	-645.4086914062502	83.2319030761719	48.32413864135745	-138.8929443359376	117.9074249267579	513.1878662109377	-520.6490478515627	17.53425788879395	81.65043640136722	-585.136169433594	18.86254882812501	299.1157226562501	-562.1156005859377	-5.160535812377931	58.89082336425784	-368.826629638672	235.0337829589845	77.94752502441409	-562.7061157226565	-54.96558761596683	82.8847351074219	-592.6127929687502	-54.52281188964847	155.3731689453126	-584.9392089843752	-62.53047561645511	75.29816436767581	-520.5096435546877	17.53425979614259	81.65041351318362	-585.136169433594	-8.485111236572269	-5.07439184188843	1.840812444686891	0.4720357656478884	-5.735213756561281	4.476479053497316	0	0	7.214498519897464	-5.726963906360283e-14	1.501151442527772	7.216990470886234	-2.087741851806642	0.9931894540786748	5.450051784515383	-0.1405283808708191	-8.433876991271976	8.516061782836918	-6.362712548675655e-13	5.874022006988527	7.612307071685795	0	0	7.572101593017582	-2.344358921051026	4.58729410171509	3.868085145950319	2.344358921051026	-4.58729410171509	3.868085145950319	-6.257664680480961	-4.482306003570558	-91.84577178955081	-6.074796199798588	-5.887064933776857	-90.97535705566409	115.9285202026368	955.090454101563	-354.3675231933595	125.9862213134766	960.9992065429692	-482.7653503417971	125.9714660644532	533.0151367187502	-310.227996826172	115.4347763061524	532.9739379882815	-519.1007080078127	170.8745422363282	95.127799987793	-268.3412475585939	170.5810852050782	91.69429779052737	-553.631774902344	
159	1.58	59.30416488647464	1046.801635742188	-311.7840881347657	75.412956237793	1056.832641601563	-525.0068969726565	253.4832916259767	1063.488159179688	-342.9107971191407	266.7139892578126	1064.533447265625	-454.3087158203127	121.9590606689454	749.409362792969	-217.1097869873048	126.4908065795899	539.030212402344	-252.6433868408204	157.6980590820313	302.6091613769532	-219.3390960693361	175.7615966796876	99.93081665039068	-223.3600616455079	238.5526428222657	55.93343734741214	-265.4888916015626	12.91711044311524	63.20771789550784	-247.8165588378907	129.2607574462891	817.038696289063	-612.5866699218752	118.8605651855469	537.6610107421877	-575.7899169921877	150.4807739257813	383.5717163085939	-604.8272705078127	180.0832519531251	96.39777374267584	-598.8916625976565	246.2284545898439	58.88632965087893	-553.677917480469	21.74034690856934	62.67765045166018	-576.825134277344	120.7921371459962	958.0761718750005	-418.7686462402346	-7.475288391113285	949.8318481445317	-428.8469848632815	111.0901947021485	952.0347290039067	-290.3496093750001	112.1079940795899	1086.597045898438	-413.3785095214846	126.0783081054688	532.9748535156252	-310.3249511718751	-298.3193664550782	523.1460571289065	-306.2581481933595	129.0975646972657	577.2968750000002	111.8751831054688	115.8788986206055	955.071411132813	-354.5631713867189	170.979721069336	95.12741851806643	-268.3524169921876	-246.2326202392579	56.98320770263675	-219.9378967285157	215.3031005859376	139.6502380371094	148.6826171875001	128.1500244140626	512.7729492187502	-308.3883666992189	16.57312393188477	87.45915985107425	-240.4918365478517	21.73623085021973	305.4957885742189	-264.3182067871095	34.35480117797853	110.7975769042969	-23.06723022460938	235.1857757568361	80.41132354736331	-257.6141662597657	-56.29775619506839	89.80844879150393	-234.7844085693361	-54.57671737670901	162.4873352050782	-242.726531982422	-50.37052917480472	97.58792114257818	-162.3095397949219	16.57311630249024	87.45915985107425	-240.4918518066407	115.3201446533204	532.9635009765627	-519.0942382812502	-313.4883422851564	545.536804199219	-544.8298339843752	88.62638092041018	497.5456542968752	-91.62481689453128	125.7053833007813	961.0809936523442	-482.9741821289065	170.5240173339844	91.65982055664065	-553.6321411132815	-243.1102905273439	47.11946487426759	-645.6582641601565	82.93221282958987	48.24572372436526	-138.9167480468751	117.7952117919922	513.1777343750002	-520.642761230469	17.47821617126466	81.59645843505862	-585.1352539062502	18.77534103393555	299.0599670410157	-562.0963134765627	-5.21028518676758	58.81526947021487	-368.8273315429689	234.9785919189454	77.92314910888675	-562.7085571289065	-55.02191162109378	82.8208923339844	-592.610778808594	-54.58953475952151	155.3087158203126	-584.931091308594	-62.5846977233887	75.22714996337893	-520.5081787109377	17.47821807861329	81.59645080566409	-585.1352539062502	-8.544494628906254	-4.980600357055666	1.827201962471009	0.4731048941612246	-5.606256961822512	4.455722808837892	0	0	7.215154170989994	5.567595419664039e-15	1.38427209854126	7.21728086471558	-2.018201112747193	0.8064468502998356	5.415126800537111	-0.1815528422594071	-8.390366554260257	8.498571395874027	-2.502074339817002e-13	5.90811347961426	7.611971855163578	0	0	7.571302413940433	-2.396111488342286	4.487382411956789	3.865608215332033	2.396111488342286	-4.487382411956789	3.865608215332033	-6.253791332244877	-4.476088523864748	-91.8465270996094	-6.079648494720463	-5.886192798614504	-90.96755981445315	115.8788986206055	955.071411132813	-354.5631103515626	125.7053909301758	961.0809936523442	-482.9741821289065	126.0783081054688	532.9749145507815	-310.3249511718751	115.3201446533204	532.9635009765627	-519.0942382812502	170.9797058105469	95.12741851806643	-268.3524169921876	170.5240173339844	91.65982055664065	-553.6321411132815	
